<?xml version="1.0" encoding="iso-8859-1"?>
<!-- Generator: Adobe Illustrator 19.0.0, SVG Export Plug-In . SVG Version: 6.00 Build 0)  -->
<svg version="1.1" id="Capa_1" xmlns="http://www.w3.org/2000/svg" xmlns:xlink="http://www.w3.org/1999/xlink" x="0px" y="0px"
	 viewBox="0 0 362 362" style="enable-background:new 0 0 362 362;" xml:space="preserve">
<g>
	<g>
		<path d="M110.9,180.05h-62c-5.5,0-10,4.5-10,10v43c0,5.5,4.5,10,10,10h62c5.5,0,10-4.5,10-10v-43
			C120.9,184.55,116.4,180.05,110.9,180.05z M100.9,223.05h-42v-23h42V223.05z"/>
	</g>
</g>
<g>
	<g>
		<path d="M352.7,154.95l-21.3-2c-2.5-8.6-6-16.9-10.5-24.7l13.5-16.2c3.3-4,3-9.7-0.6-13.4l-26.6-26.9c-3.6-3.7-9.5-4-13.5-0.7
			l-16.3,13.5c-7.7-4.4-16-7.9-24.5-10.4l-2-21.2c-0.5-5.1-4.8-9-9.9-9h-34v-30c0-5.5-4.5-10-10-10s-10,4.5-10,10v18H87.2
			c-15.2,0.1-28.7,9.6-34,23.8l-30,81c0,0.1-0.1,0.3-0.1,0.4l-7.5,7c-9.9,9.3-15.6,22.3-15.6,35.9v119.4c0,20,16.6,35.7,36.6,35.7
			h21.8c20,0,36.6-15.8,36.6-35.7v-15.4h92v64c0,5.5,4.5,10,10,10s10-4.5,10-10v-24h34c5.2,0,9.5-3.9,10-9.1l2-21.3
			c8.6-2.5,16.8-5.9,24.6-10.3l16.3,13.5c4,3.3,9.8,3,13.4-0.6l26.9-26.9c3.6-3.6,3.9-9.5,0.6-13.5l-13.5-16.3
			c4.4-7.8,7.9-16,10.4-24.5l21.1-2c5.2-0.5,9.1-4.8,9.2-10v-38.2C361.8,159.75,357.8,155.45,352.7,154.95z M74.9,299.35
			c0,8.9-7.6,15.7-16.6,15.7H36.5c-8.9,0-16.6-6.8-16.6-15.7v-18.8c5.2,2.4,10.9,3.6,16.6,3.5h38.4V299.35z M186.9,189.05h-31.3
			c-5.5,0-10,4.5-10,10s4.5,10,10,10h31.3v5h-31.3c-5.5,0-10,4.5-10,10s4.5,10,10,10h31.3v30H36.5c-8.9,0-16.6-6.9-16.6-15.9v-68.2
			c0.1-8.1,3.5-15.9,9.4-21.4l9-8.5h148.6V189.05z M82.8,130.05c4.4-16,19.4-28.5,37.2-28.5c17.8,0,32.7,12.5,37.1,28.5H82.8z
			 M186.9,130.05h-9.3c-4.8-27-28.8-48.5-57.6-48.5c-28.8,0-52.9,21.5-57.7,48.5H46.9l25-67.4c2.4-6.4,8.4-10.6,15.2-10.6h99.8
			V130.05z M206.9,141.75c23.3-8.2,48.9,4,57.1,27.3c8.2,23.3-4,48.9-27.3,57.1c-9.6,3.4-20.2,3.4-29.8,0V141.75z M341.9,193.95
			L341.9,193.95l-19.1,1.8c-4.3,0.4-7.9,3.6-8.9,7.8c-2.5,11.2-7,21.8-13.3,31.4c-2.4,3.7-2.1,8.4,0.7,11.8l12.2,14.8l-14,14
			l-14.8-12.2c-3.4-2.8-8.3-3.1-11.9-0.6c-9.5,6.3-20.1,10.8-31.3,13.2c-4.3,0.9-7.4,4.5-7.8,8.8l-1.8,19.2h-25v-57.1
			c34.8,8.2,69.6-13.4,77.8-48.1s-13.4-69.6-48.1-77.8c-9.8-2.3-19.9-2.3-29.7,0v-56.9h24.9l1.9,19.1c0.4,4.3,3.6,7.9,7.8,8.8
			c11.2,2.5,21.8,7,31.4,13.2c3.7,2.4,8.4,2.1,11.8-0.7l14.7-12.2l13.8,13.9l-12.3,14.9c-2.8,3.4-3.1,8.2-0.6,11.9
			c6.3,9.5,10.8,20.1,13.2,31.3c1,4.3,4.6,7.4,9,7.8l19.4,1.8V193.95z"/>
	</g>
</g>
<g>
</g>
<g>
</g>
<g>
</g>
<g>
</g>
<g>
</g>
<g>
</g>
<g>
</g>
<g>
</g>
<g>
</g>
<g>
</g>
<g>
</g>
<g>
</g>
<g>
</g>
<g>
</g>
<g>
</g>
</svg>
